<svg xmlns="http://www.w3.org/2000/svg" xmlns:xlink="http://www.w3.org/1999/xlink" width="1440px" height="236px" viewBox="0 0 1440 236" version="1.1"><!--Generator: Sketch 63.1 (92452) - https://sketch.com--><title>Value Prop #2 - Background</title><desc>Created with Sketch.</desc><defs><linearGradient x1="50%" y1="100%" x2="50%" y2="0%" id="linearGradient-1"><stop stop-color="#079AAA" offset="0%"/><stop stop-color="#0895A8" offset="30.0895868%"/><stop stop-color="#1A4A84" offset="53.4348944%"/><stop stop-color="#493D84" offset="76.8958874%"/><stop stop-color="#8D68AA" offset="100%"/></linearGradient><linearGradient x1="50%" y1="0.667757601%" x2="50%" y2="99.7955048%" id="linearGradient-2"><stop stop-color="#080808" offset="0%"/><stop stop-color="#080808" stop-opacity="0.38" offset="100%"/></linearGradient></defs><g id="Website" stroke="none" stroke-width="1" fill="none" fill-rule="evenodd"><g id="Desktop-HD" transform="translate(0.000000, -2569.000000)"><g id="Value-Prop-#2---Background" transform="translate(0.000000, 2569.000000)"><path d="M123.692982,149 L123.692982,235 M103.776316,174 L103.776316,235 M82.8114035,192 L82.8114035,235 M62.8947368,204 L62.8947368,235 M41.9298246,217 L41.9298246,235 M22.0131579,217 L22.0131579,235 M1.04824561,217 L1.04824561,235 M144.657895,129 L144.657895,235 M164.574561,139 L164.574561,235 M185.539474,141 L185.539474,235 M205.45614,147 L205.45614,236 M226.421053,151 L226.421053,235 M246.337719,151 L246.337719,235 M267.302632,151 L267.302632,235 M287.219298,149 L287.219298,235 M308.184211,142 L308.184211,235 M328.100877,129 L328.100877,235 M349.065789,118 L349.065789,235 M368.982456,105 L368.982456,235 M389.947368,98 L389.947368,235 M409.864035,93 L409.864035,235 M430.828947,91 L430.828947,235 M450.745614,86 L450.745614,235 M471.710526,79 L471.710526,235 M491.627193,61 L491.627193,236 M512.592105,43 L512.592105,235 M532.508772,21 L532.508772,235 M553.473684,10 L553.473684,235 M574.438596,0 L574.438596,235 M594.355263,0 L594.355263,235 M1392.07018,10 L1392.07018,235 M1413.03509,0 L1413.03509,235 M1432.95175,0 L1432.95175,235 M615.320175,4 L615.320175,235 M635.236842,13 L635.236842,235 M656.201754,34 L656.201754,235 M676.118421,53 L676.118421,235 M697.083333,65 L697.083333,235 M717,76 L717,235 M737.964912,79 L737.964912,235 M757.881579,80 L757.881579,235 M778.846491,80 L778.846491,235 M798.763158,76 L798.763158,235 M819.72807,65 L819.72807,235 M839.644737,58 L839.644737,235 M860.609649,46 L860.609649,235 M880.526316,35 L880.526316,235 M901.491228,30 L901.491228,235 M921.407895,30 L921.407895,235 M942.372807,32 L942.372807,235 M962.289474,38 L962.289474,235 M983.254386,43 L983.254386,235 M1003.17105,52 L1003.17105,235 M1024.13596,58 L1024.13596,235 M1044.05263,65 L1044.05263,235 M1065.01754,68 L1065.01754,235 M1084.93421,68 L1084.93421,235 M1105.89912,63 L1105.89912,235 M1125.81579,56 L1125.81579,235 M1146.7807,46 L1146.7807,235 M1166.69737,32 L1166.69737,235 M1187.66228,18 L1187.66228,236 M1207.57895,10 L1207.57895,235 M1228.54386,5 L1228.54386,235 M1248.46053,5 L1248.46053,235 M1269.42544,11 L1269.42544,235 M1289.34211,27 L1289.34211,235 M1310.30702,34 L1310.30702,235 M1331.27193,34 L1331.27193,235 M1351.1886,27 L1351.1886,235 M1372.15351,18 L1372.15351,236" id="Combined-Shape" stroke="url(#linearGradient-1)"/><rect id="Rectangle" fill="url(#linearGradient-2)" transform="translate(720.000000, 118.000000) scale(1, -1) translate(-720.000000, -118.000000) " x="0" y="0" width="1440" height="236"/></g></g></g></svg>