<svg xmlns="http://www.w3.org/2000/svg" xmlns:xlink="http://www.w3.org/1999/xlink" preserveAspectRatio="xMidYMax slice" viewBox="0 0 1440 746" version="1.1"><!--Generator: Sketch 63 (92445) - https://sketch.com--><title>Hero - Background</title><desc>Created with Sketch.</desc><defs><linearGradient x1="0%" y1="50.0281914%" x2="100.059993%" y2="50.0281914%" id="linearGradient-1"><stop stop-color="#079AAA" offset="0%"/><stop stop-color="#1A4A84" offset="32%"/><stop stop-color="#493D84" offset="61%"/><stop stop-color="#8D68AA" offset="100%"/></linearGradient><linearGradient x1="0.00300616263%" y1="50.029893%" x2="100.060123%" y2="50.029893%" id="linearGradient-2"><stop stop-color="#079AAA" offset="0%"/><stop stop-color="#1A4A84" offset="32%"/><stop stop-color="#493D84" offset="61%"/><stop stop-color="#8D68AA" offset="100%"/></linearGradient><linearGradient x1="0.00451909317%" y1="50.0347267%" x2="100.060255%" y2="50.0347267%" id="linearGradient-3"><stop stop-color="#079AAA" offset="0%"/><stop stop-color="#1A4A84" offset="32%"/><stop stop-color="#493D84" offset="61%"/><stop stop-color="#8D68AA" offset="100%"/></linearGradient><linearGradient x1="0.00452898551%" y1="50.0386572%" x2="100.060386%" y2="50.0386572%" id="linearGradient-4"><stop stop-color="#079AAA" offset="0%"/><stop stop-color="#1A4A84" offset="32%"/><stop stop-color="#493D84" offset="61%"/><stop stop-color="#8D68AA" offset="100%"/></linearGradient><linearGradient x1="0.00453857791%" y1="50.0492842%" x2="100.05295%" y2="50.0492842%" id="linearGradient-5"><stop stop-color="#079AAA" offset="0%"/><stop stop-color="#1A4A84" offset="32%"/><stop stop-color="#493D84" offset="61%"/><stop stop-color="#8D68AA" offset="100%"/></linearGradient><linearGradient x1="0.0045491766%" y1="50.0610027%" x2="100.066721%" y2="50.0610027%" id="linearGradient-6"><stop stop-color="#079AAA" offset="0%"/><stop stop-color="#1A4A84" offset="32%"/><stop stop-color="#493D84" offset="61%"/><stop stop-color="#8D68AA" offset="100%"/></linearGradient><linearGradient x1="0.00455920123%" y1="50.0474255%" x2="100.066868%" y2="50.0474255%" id="linearGradient-7"><stop stop-color="#079AAA" offset="0%"/><stop stop-color="#1A4A84" offset="32%"/><stop stop-color="#493D84" offset="61%"/><stop stop-color="#8D68AA" offset="100%"/></linearGradient><linearGradient x1="0.00456954853%" y1="50.0174095%" x2="100.041126%" y2="50.0174095%" id="linearGradient-8"><stop stop-color="#079AAA" offset="0%"/><stop stop-color="#1A4A84" offset="32%"/><stop stop-color="#493D84" offset="61%"/><stop stop-color="#8D68AA" offset="100%"/></linearGradient></defs><g id="Website" stroke="none" stroke-width="1" fill="none" fill-rule="evenodd"><g id="Desktop-HD" transform="translate(0.000000, -100.000000)"><g id="Hero---Background" transform="translate(0.000000, 101.000000)"><path d="M0,743.081153 C0,743.081153 826.334308,802.905206 1440,0.0875912409" id="Path" stroke="url(#linearGradient-1)"/><path d="M0,743.841326 C0,743.841326 472.063731,761.613648 930.816173,495.201785 C1111.46009,390.254278 1304.18157,248.378394 1440,71.0875912" id="Path" stroke="url(#linearGradient-2)"/><path d="M0,743.073357 C0,743.073357 491.532726,748.900627 920.550124,524.744979 C1113.95285,423.738968 1326.57438,289.582266 1440,142.087591" id="Path" stroke="url(#linearGradient-3)"/><path d="M0,743.087591 C0,743.087591 513.23913,740.084173 910.23913,554.455648 C1117.1087,457.676442 1349.06522,330.193227 1440,212.087591" id="Path" stroke="url(#linearGradient-4)"/><path d="M0,743.087591 C0,743.087591 536.634191,734.213618 899.727685,584.521996 C1120.89077,493.450417 1371.55098,371.719368 1440,283.087591" id="Path" stroke="url(#linearGradient-5)"/><path d="M0,743.087591 C0,743.087591 561.361114,730.997418 889.55691,614.248306 C1125.53908,530.287569 1394.34082,412.262392 1440,353.087591" id="Path" stroke="url(#linearGradient-6)"/><path d="M0,743.087591 C0,743.087591 586.648835,730.397754 879.108828,644.628242 C1130.77674,570.816047 1417.13105,454.560762 1440,425.087591" id="Path" stroke="url(#linearGradient-7)"/><path d="M0,743.087591 C0,743.087591 611.953939,732.056254 868.579784,674.373803 C1136.69896,614.143998 1440,495.087591 1440,495.087591" id="Path" stroke="url(#linearGradient-8)"/></g></g></g></svg>