<svg xmlns="http://www.w3.org/2000/svg" width="1920" height="1080" viewBox="0 0 1920 1080">
  <defs>
    <style>
      .cls-1 {
        fill: none;
        stroke: #2b2f33;
        stroke-width: 1px;
        fill-rule: evenodd;
      }
    </style>
  </defs>
  <path class="cls-1" d="M-63,1002c132.793-37.111,256.087-98.146,363-189C433.06,699.926,485.983,568.663,573,449,914.408-20.495,1789.46-157.338,1956,77c146.07,205.531-178.5,801.293-669,1042-435.941,213.93-877.288,78.16-1072-8C22.218,1025.69-79.317,910.666-108,838-188.1,635.069-52.739,396.2,42,269,142.038,134.68,280.865,28.669,482-54c398.618-163.837,988.25-212.537,1087-3,86.18,182.868-212.64,539.468-572,881-147.325,140.016-279.074,244.28-251,315,43.209,108.84,770.69-10.14,1026-6,181.51,2.94,314.71,15.68,320-11C2113.36,1014.34-23.3,643.916-19,131-18.256,42.31,52.971-36.847,107-82,311.985-253.306,707-193.933,861,10c45.617,60.408,49.95,116.658,81,190,46.62,110.118,119.12,217.452,204,298,242.96,230.566,663.61,312.524,809,156,44.82-48.253,48.43-105.353,59-205,32.01-301.649,91.96-486.488,3-562-82.59-70.1-219.04-22.679-334,6C1276.24-5.522,868.147-110.338,867-89c-0.644,11.978,122.689,16.045,132,61,10.9,52.623-137.234,127.207-215,162-185.589,83.034-327.057,63.653-477,155C112.86,407.272,13.206,646.011-24,915c-17.861,129.13.794,210.88,35,248,105.687,114.7,360.155,32.04,476-24,81.574-39.46,321.371-174.99,353-398C880.567,454.966,503.71,202.489,586,36c17.146-34.689,51.625-60.992,105-79"/>
</svg>
